<svg width="26" height="25" viewBox="0 0 26 25" fill="none" xmlns="http://www.w3.org/2000/svg">
<path d="M4.02389 16.931L7.38721 14.359C7.1949 13.7749 7.09091 13.15 7.09091 12.5C7.09091 11.85 7.1949 11.2251 7.38721 10.641L4.02389 8.06906C3.36791 9.40272 3 10.9063 3 12.5C3 14.0937 3.36791 15.5973 4.02389 16.931Z" fill="#FBBC05"/>
<path d="M4.02252 16.9282C5.64857 20.2367 9.04713 22.5 13 22.5C18 22.5 22.5454 18.8636 22.5454 12.5C22.5454 11.9091 22.4545 11.2727 22.3182 10.6818H13V14.5455H18.3636C17.8636 17 15.7727 18.4091 13 18.4091C10.3742 18.4091 8.15801 16.712 7.38448 14.3507L4.02252 16.9282Z" fill="#34A853"/>
<path d="M7.38719 10.641C8.16319 8.28406 10.3772 6.59091 13 6.59091C14.4091 6.59091 15.6818 7.09091 16.6818 7.90909L19.5909 5C17.8182 3.45455 15.5454 2.5 13 2.5C9.04822 2.5 5.65044 4.76209 4.02386 8.06905L7.38719 10.641Z" fill="#EA4335"/>
<path d="M13 10.6818H22.3182C22.4545 11.2727 22.5455 11.9091 22.5455 12.5C22.5455 15.7593 21.3531 18.3032 19.518 20.0095L16.325 17.5375C17.369 16.8786 18.0953 15.8626 18.3636 14.5455H13V10.6818Z" fill="#4285F4"/>
</svg>
