<svg width="100" height="100" viewBox="0 0 100 100" fill="none" xmlns="http://www.w3.org/2000/svg">
<path d="M63.1147 20.0892L64.8103 38.2667C64.9689 39.9205 66.0634 41.3135 67.6165 41.8768L84.7841 48.1518C88.4194 49.4875 88.5902 54.5736 85.0275 56.0987L68.2571 63.2802C66.7314 63.9035 65.759 65.3858 65.7054 67.0309L65.023 85.2598C64.9047 89.136 60.1095 90.8347 57.525 87.9326L45.4318 74.2548C44.3433 73.0243 42.613 72.5161 41.0319 72.9624L23.4627 77.9271C19.7193 78.9704 16.6539 74.9627 18.6014 71.6239L27.9208 55.9856C28.7654 54.5729 28.6997 52.7856 27.8029 51.4507L17.595 36.291C15.423 33.0815 18.3174 28.8957 22.0976 29.7382L39.9316 33.7446C41.5425 34.1107 43.2165 33.5309 44.2444 32.2256L55.5013 17.8529C57.8357 14.842 62.73 16.2796 63.1147 20.0892Z" fill="#FFCC00"/>
<path d="M44.1101 48.7342C44.1101 48.7342 45.3937 51.1958 49.0876 52.2808C52.2538 53.2109 54.6642 51.8344 54.6642 51.8344" stroke="black" stroke-linecap="round"/>
<circle cx="44.3016" cy="42.9741" r="1.5" fill="black"/>
<circle cx="57.2543" cy="46.7789" r="1.5" fill="black"/>
<path d="M26.2471 42.6333C21.9253 41.6556 13.1736 39.5933 12.7414 39.1667C12.2011 38.6333 12.4713 32.7667 9.5 32.5M9.5 48.7667C10.4004 49.7444 12.6874 51.8067 14.6322 52.2333C16.577 52.66 27.6877 55.2556 33 56.5" stroke="black" stroke-linecap="round"/>
<path d="M30.3556 70.5L19 92.5M43.063 72.9444L33.6 92.5M55.5 77.2901L47.3889 92.5" stroke="black" stroke-linecap="round"/>
</svg>
