<svg width="100" height="100" viewBox="0 0 100 100" fill="none" xmlns="http://www.w3.org/2000/svg">
<path d="M70.6838 58.0708C72.1177 59.6796 75.6846 62.8973 78.4808 62.8973C81.976 62.8973 86.5466 57.5345 87.0844 56.7301C87.6221 55.9257 86.8155 52.9761 87.3532 52.4398C87.8909 51.9035 88.9664 54.0487 89.5041 54.0487C90.0418 54.0487 94.0747 50.2947 94.6125 49.7584C95.1502 49.2221 96.2256 48.6859 96.4945 49.2221C96.7096 49.6512 94.971 52.2611 94.0747 53.5124C95.1502 52.0823 97.5162 49.5439 98.3765 50.831C99.2369 52.1181 96.7634 54.9425 95.4191 56.1938C96.4945 55.1212 98.6992 53.0834 98.9143 53.5124C99.1293 53.9414 97.3907 56.7301 96.4945 58.0708C97.0322 57.2664 98.269 55.7648 98.9143 56.1938C99.7208 56.7301 94.6125 63.7018 92.9993 65.3106C91.3861 66.9195 85.475 75.5 76.061 75.5C70.6838 75.5 65.217 71.6566 64.5 69.6009" stroke="black" stroke-linecap="round"/>
</svg>
